<?xml version="1.0" encoding="UTF-8"?>
<svg width="5.12" height="4.7551" clip-rule="evenodd" fill-rule="evenodd" image-rendering="optimizeQuality" shape-rendering="geometricPrecision" text-rendering="geometricPrecision" version="1.1" viewBox="0 0 5.12 4.7551" xml:space="preserve" xmlns="http://www.w3.org/2000/svg" xmlns:cc="http://creativecommons.org/ns#" xmlns:dc="http://purl.org/dc/elements/1.1/" xmlns:rdf="http://www.w3.org/1999/02/22-rdf-syntax-ns#"><metadata><rdf:RDF><cc:Work rdf:about=""><dc:format>image/svg+xml</dc:format><dc:type rdf:resource="http://purl.org/dc/dcmitype/StillImage"/><dc:title/></cc:Work></rdf:RDF></metadata><defs><style type="text/css">
   
    .fil1 {fill:none}
    .fil0 {fill:black;fill-rule:nonzero}
   
  </style></defs><g transform="translate(-.85333 -1.0358)"><path class="fil0" d="m2.2703 2.3095c0.016193-7.638e-4 0.030618-0.00114 0.043307-0.00114 0.21337 0 0.40676 0.072807 0.54913 0.1872 0.07615 0.061185 0.13783 0.13441 0.18046 0.21501-0.035567 0.00807-0.070535 0.018232-0.10465 0.030591-0.035236-0.060244-0.083724-0.11547-0.14249-0.16269-0.12431-0.099874-0.29413-0.16344-0.48246-0.16344-0.00944 0-0.018252 1.063e-4 -0.026406 3.228e-4 -0.04222 0.029571-0.088646 0.053264-0.13824 0.069941-0.053209 0.017898-0.10949 0.027547-0.16751 0.027547s-0.1143-0.00965-0.16751-0.027547c-0.049594-0.016677-0.096016-0.04037-0.13823-0.069937-0.00807-2.126e-4 -0.016803-3.15e-4 -0.026165-3.15e-4 -0.18843 0-0.35835 0.063563-0.4827 0.16345-0.12182 0.097854-0.19948 0.23012-0.20646 0.3702-2.4409e-4 0.00497-3.7402e-4 0.011898-3.7402e-4 0.020831v0.19189h1.5374c-0.013965 0.03461-0.025449 0.07024-0.034591 0.10667h-1.5562c-0.029453 0-0.053335-0.023882-0.053335-0.053335v-0.24522c0-0.00666 2.6772e-4 -0.015307 7.9134e-4 -0.025831 0.008547-0.17169 0.10109-0.33168 0.24604-0.44811 0.14243-0.11441 0.3359-0.1872 0.54937-0.1872 0.013598 0 0.029236 4.371e-4 0.046945 0.00132l-0.0025 0.053126 0.00266-0.053268c0.011685 5.827e-4 0.022303 0.00489 0.030768 0.011709 0.036858 0.027284 0.077327 0.048756 0.12028 0.063201 0.041941 0.014106 0.086858 0.021713 0.13376 0.021713s0.091823-0.00761 0.13376-0.021713c0.043547-0.014646 0.084547-0.036512 0.12182-0.064342l-2.36e-5 -3.15e-5c0.00998-0.00746 0.021732-0.01089 0.033295-0.010583z"/><path class="fil0" d="m1.9814 1.0358c0.15944 0 0.30399 0.051571 0.40665 0.15266 0.094559 0.093114 0.15245 0.22667 0.15245 0.39872 0 0.17919-0.06337 0.35563-0.16533 0.4856-0.10071 0.12839-0.23943 0.21248-0.39378 0.21248-0.15435 0-0.29308-0.084087-0.39379-0.21248-0.10195-0.12996-0.16533-0.30641-0.16533-0.4856 0-0.17206 0.057894-0.30561 0.15246-0.39872 0.10266-0.10109 0.24721-0.15266 0.40666-0.15266zm0.33207 0.2285c-0.081925-0.080673-0.20005-0.12183-0.33207-0.12183s-0.25015 0.041157-0.33208 0.12183c-0.074661 0.073516-0.12037 0.18145-0.12037 0.32289 0 0.15532 0.054591 0.30782 0.14241 0.41977 0.081358 0.10371 0.19084 0.17164 0.31004 0.17164 0.1192 0 0.22867-0.067929 0.31003-0.17164 0.087819-0.11194 0.14241-0.26444 0.14241-0.41977 0-0.14143-0.045709-0.24937-0.12037-0.32289z"/><path class="fil0" d="m5.1138 3.1374 0.00407 2.36e-5 0.00148 7.9e-6c0.22837 0.00125 0.43519 0.079602 0.58774 0.20217 0.15632 0.12559 0.25612 0.29805 0.26539 0.483 5.63e-4 0.01124 8.465e-4 0.020575 8.465e-4 0.027988v0.26621c0 0.029453-0.023882 0.053335-0.053335 0.053335h-2.0419c0.024362-0.034087 0.04676-0.069752 0.067134-0.10667h1.9214v-0.21287c0-0.00963-1.457e-4 -0.017291-4.291e-4 -0.022988-0.00769-0.15334-0.092618-0.29807-0.22581-0.40509-0.064394-0.05174-0.13998-0.094547-0.22358-0.12526l-4e-6 1.496e-4c-0.092736-0.034102-0.19535-0.053327-0.30356-0.053327-0.00736 0-0.014366 4.72e-5 -0.021035 1.85e-4h-1.023e-4l-3.504e-4 7.9e-6h-1.063e-4l-3.465e-4 7.9e-6h-1.102e-4l-3.425e-4 7.9e-6 -1.142e-4 3.9e-6 -3.347e-4 7.9e-6h-1.181e-4l-3.346e-4 7.8e-6h-1.181e-4l-3.307e-4 7.9e-6 -1.221e-4 4e-6 -3.267e-4 7.8e-6h-1.26e-4l-3.189e-4 7.9e-6 -1.299e-4 3.9e-6 -3.15e-4 7.9e-6 -1.339e-4 4e-6 -3.11e-4 3.9e-6 -1.378e-4 3.9e-6 -3.071e-4 7.9e-6 -1.378e-4 3.9e-6 -3.031e-4 7.9e-6 -1.418e-4 4e-6 -3.031e-4 7.8e-6 -1.417e-4 4e-6 -2.953e-4 3.9e-6 -1.496e-4 7.9e-6 -2.914e-4 3.9e-6 -1.496e-4 7.9e-6 -2.874e-4 3.9e-6 -1.535e-4 7.9e-6 -2.835e-4 3.9e-6 -1.574e-4 7.9e-6 -2.796e-4 3.9e-6 -1.614e-4 7.9e-6 -2.756e-4 4e-6 -1.614e-4 7.8e-6c-0.045787 0.032228-0.096173 0.058024-0.15001 0.07613-0.054681 0.018394-0.1124 0.028689-0.1719 0.029587l-0.00266 3.55e-5h-2.642e-4l-0.00266 2.36e-5h-2.638e-4l-0.00267 7.9e-6h-2.638e-4l-0.00267-7.9e-6h-2.638e-4l-0.00266-2.36e-5h-2.638e-4l-0.00266-3.55e-5c-0.0595-8.937e-4 -0.11722-0.011193-0.1719-0.029587-0.053839-0.018106-0.10422-0.043902-0.15001-0.07613l-1.614e-4 -7.8e-6 -2.756e-4 -4e-6 -1.614e-4 -7.9e-6 -2.796e-4 -3.9e-6 -1.574e-4 -7.9e-6 -2.835e-4 -3.9e-6 -1.535e-4 -7.9e-6 -2.874e-4 -3.9e-6 -1.497e-4 -7.9e-6 -2.913e-4 -3.9e-6 -1.496e-4 -7.9e-6 -2.953e-4 -3.9e-6 -1.417e-4 -4e-6 -3.032e-4 -7.8e-6 -1.417e-4 -4e-6 -3.031e-4 -7.9e-6 -1.378e-4 -3.9e-6 -3.071e-4 -7.9e-6 -1.378e-4 -3.9e-6 -3.11e-4 -3.9e-6 -1.339e-4 -4e-6 -3.15e-4 -7.9e-6 -1.299e-4 -3.9e-6 -3.189e-4 -7.9e-6h-1.26e-4l-3.267e-4 -7.8e-6 -1.221e-4 -4e-6 -3.307e-4 -7.9e-6h-1.181e-4l-3.346e-4 -7.8e-6h-1.182e-4l-3.346e-4 -7.9e-6 -1.142e-4 -3.9e-6 -3.425e-4 -7.9e-6h-1.102e-4l-3.465e-4 -7.9e-6h-1.063e-4l-3.504e-4 -7.9e-6h-1.023e-4c-0.00667-1.22e-4 -0.013689-1.85e-4 -0.021035-1.85e-4 -0.1082 0-0.21082 0.019224-0.30356 0.053327l-4e-6 -1.496e-4c-0.00634 0.00233-0.01263 0.00473-0.018878 0.00719-0.00724-0.035146-0.016563-0.069642-0.028087-0.10329 0.10521-0.04011 0.22171-0.063059 0.34445-0.063732l0.00148-7.9e-6 0.00407-2.36e-5c0.00343 0 0.00694 3.15e-5 0.010575 7.88e-5h1.929e-4l0.00129 1.96e-5h1.063e-4l6.417e-4 1.18e-5h5.91e-5l6.889e-4 1.19e-5h1.19e-5l7.047e-4 1.18e-5 3.54e-5 3.9e-6 6.732e-4 7.9e-6 8.27e-5 3.9e-6 6.299e-4 1.18e-5 1.3e-4 4e-6 5.826e-4 7.8e-6 1.772e-4 4e-6 5.394e-4 1.18e-5 2.244e-4 3.9e-6 4.921e-4 1.18e-5 2.756e-4 4e-6 4.449e-4 1.18e-5 3.268e-4 7.9e-6 3.976e-4 7.8e-6 3.74e-4 7.9e-6 3.543e-4 1.18e-5 4.213e-4 7.9e-6 3.071e-4 7.9e-6 0.00204 5.11e-5 1.614e-4 7.9e-6 0.00222 5.51e-5 1.18e-5 4e-6c0.00702 2.008e-4 0.014398 4.803e-4 0.02213 8.425e-4 0.00138-3.15e-5 0.00276-1.58e-5 0.00415 5.9e-5v-7.8e-6c0.011705 5.827e-4 0.022339 0.00491 0.030811 0.011744 0.040405 0.029925 0.084803 0.05348 0.13195 0.069335 0.043846 0.014752 0.090654 0.02302 0.13944 0.023764l0.00214 3.15e-5h2.638e-4l0.00214 1.57e-5h2.638e-4l0.00215 7.9e-6h2.637e-4l0.00215-7.9e-6h2.638e-4l0.00214-1.57e-5h2.638e-4l0.00214-3.15e-5c0.048791-7.402e-4 0.095591-0.00902 0.13944-0.023764 0.047146-0.015854 0.091543-0.039409 0.13195-0.069335 0.00847-0.00684 0.019106-0.011161 0.030811-0.011744v7.8e-6c0.00139-7.48e-5 0.00277-9.05e-5 0.00415-5.9e-5 0.015724-7.284e-4 0.031543-0.00123 0.047295-0.00123z"/><path class="fil0" d="m4.7532 1.7558c0.17191 0 0.32771 0.055543 0.43827 0.16441 0.10181 0.10025 0.16413 0.24414 0.16413 0.42961 0 0.19351-0.068421 0.38403-0.1785 0.52435-0.10851 0.13832-0.25785 0.22892-0.42391 0.22892-0.16606 0-0.3154-0.090594-0.42391-0.22892-0.11008-0.14032-0.1785-0.33084-0.1785-0.52435 0-0.18547 0.062327-0.32936 0.16413-0.42961 0.11056-0.10887 0.26636-0.16441 0.43827-0.16441zm0.36368 0.24025c-0.089823-0.088453-0.21919-0.13358-0.36368-0.13358s-0.27386 0.045126-0.36368 0.13358c-0.081902 0.08065-0.13205 0.19892-0.13205 0.35378 0 0.16964 0.059638 0.33622 0.15558 0.45852 0.089154 0.11365 0.20925 0.18808 0.34016 0.18808s0.251-0.074437 0.34016-0.18808c0.095937-0.1223 0.15558-0.28888 0.15558-0.45852 0-0.15485-0.050146-0.27313-0.13205-0.35378z"/><path class="fil0" d="m3.6584 4.5149c0.02185-0.00104 0.041835-0.00156 0.059976-0.00156 0.28822 0 0.54927 0.098213 0.74132 0.25252 0.19458 0.15634 0.3188 0.37074 0.33032 0.60039 6.732e-4 0.013476 0.00102 0.025079 0.00102 0.034728v0.33659c0 0.029453-0.023882 0.053335-0.053335 0.053335h-2.9505c-0.029453 0-0.053335-0.023882-0.053335-0.053335v-0.33659c0-0.00958 3.386e-4 -0.021114 0.00101-0.034531 0.011441-0.22978 0.13569-0.4442 0.33034-0.60056 0.19213-0.15433 0.45329-0.25253 0.74163-0.25253 0.019079 0 0.040248 5.748e-4 0.063516 0.00173l-0.0025 0.053126 0.00265-0.053268c0.011713 5.827e-4 0.022354 0.00491 0.030831 0.011756 0.052319 0.038815 0.10992 0.069394 0.1712 0.090004 0.059665 0.020067 0.12344 0.030886 0.18989 0.030886 0.066457 0 0.13023-0.010819 0.18989-0.030886 0.061905-0.020819 0.12006-0.051811 0.17281-0.091197l-2.37e-5 -3.15e-5c0.00998-0.00745 0.021717-0.010886 0.033276-0.010579zm0.059976 0.10511c-0.015181 0-0.029476 2.205e-4 -0.04285 6.693e-4 -0.057752 0.041146-0.1214 0.07398-0.18944 0.096862-0.070937 0.023858-0.14607 0.03672-0.22364 0.03672-0.077563 0-0.1527-0.012862-0.22364-0.03672-0.068035-0.022886-0.13168-0.055716-0.18942-0.096858-0.013264-4.41e-4 -0.027445-6.575e-4 -0.042524-6.575e-4 -0.2633 0-0.50091 0.088965-0.67496 0.22878-0.17152 0.13778-0.28089 0.32449-0.29076 0.52265-3.898e-4 0.00786-5.906e-4 0.017709-5.906e-4 0.029532v0.28326h2.8438v-0.28326c0-0.01189-2.047e-4 -0.021787-5.984e-4 -0.029728-0.00993-0.19805-0.11928-0.38472-0.29074-0.52248-0.17398-0.13979-0.41148-0.22876-0.67465-0.22876z"/><path class="fil0" d="m3.2625 2.7666c0.21374 0 0.40723 0.068847 0.54428 0.2038 0.12609 0.12416 0.20328 0.30271 0.20328 0.53316 0 0.24151-0.085346 0.47924-0.22266 0.65428-0.13463 0.17163-0.31959 0.28404-0.5249 0.28404-0.20531 0-0.39027-0.11241-0.52491-0.28404-0.13731-0.17504-0.22266-0.41276-0.22266-0.65428 0-0.23046 0.077197-0.409 0.20328-0.53316 0.13705-0.13495 0.33055-0.2038 0.54428-0.2038zm0.46969 0.27964c-0.11631-0.11454-0.28337-0.17297-0.46969-0.17297s-0.35339 0.058433-0.4697 0.17297c-0.10618 0.10456-0.1712 0.25749-0.1712 0.45733 0 0.21764 0.076563 0.43142 0.19974 0.58844 0.11528 0.14696 0.27099 0.2432 0.44116 0.2432 0.17016 0 0.32587-0.096244 0.44115-0.2432 0.12317-0.15702 0.19974-0.3708 0.19974-0.58844 0-0.19984-0.065012-0.35277-0.1712-0.45733z"/></g><rect class="fil1" x="-.85333" y="-1.0358" width="6.8267" height="6.8267"/><text x="-0.853333" y="20.79088" fill="#000000" font-family="'Helvetica Neue', Helvetica, Arial-Unicode, Arial, Sans-serif" font-size="5px" font-weight="bold">Created by Graphic Nehar</text><text x="-0.853333" y="25.79088" fill="#000000" font-family="'Helvetica Neue', Helvetica, Arial-Unicode, Arial, Sans-serif" font-size="5px" font-weight="bold">from the Noun Project</text></svg>
