<?xml version="1.0" encoding="UTF-8" standalone="no"?>
<svg
   xmlns:dc="http://purl.org/dc/elements/1.1/"
   xmlns:cc="http://creativecommons.org/ns#"
   xmlns:rdf="http://www.w3.org/1999/02/22-rdf-syntax-ns#"
   xmlns:svg="http://www.w3.org/2000/svg"
   xmlns="http://www.w3.org/2000/svg"
   xmlns:sodipodi="http://sodipodi.sourceforge.net/DTD/sodipodi-0.dtd"
   xmlns:inkscape="http://www.inkscape.org/namespaces/inkscape"
   data-name="Project Development"
   viewBox="0 0 58 60"
   x="0px"
   y="0px"
   version="1.1"
   id="svg28"
   sodipodi:docname="icon-projects.svg"
   width="58"
   height="60"
   inkscape:version="1.0.2 (e86c870879, 2021-01-15, custom)">
  <metadata
     id="metadata34">
    <rdf:RDF>
      <cc:Work
         rdf:about="">
        <dc:format>image/svg+xml</dc:format>
        <dc:type
           rdf:resource="http://purl.org/dc/dcmitype/StillImage" />
        <dc:title></dc:title>
      </cc:Work>
    </rdf:RDF>
  </metadata>
  <defs
     id="defs32" />
  <sodipodi:namedview
     pagecolor="#ffffff"
     bordercolor="#666666"
     borderopacity="1"
     objecttolerance="10"
     gridtolerance="10"
     guidetolerance="10"
     inkscape:pageopacity="0"
     inkscape:pageshadow="2"
     inkscape:window-width="1920"
     inkscape:window-height="1057"
     id="namedview30"
     showgrid="false"
     fit-margin-top="0"
     fit-margin-left="0"
     fit-margin-right="0"
     fit-margin-bottom="0"
     inkscape:zoom="11.125"
     inkscape:cx="29"
     inkscape:cy="38"
     inkscape:window-x="-8"
     inkscape:window-y="-8"
     inkscape:window-maximized="1"
     inkscape:current-layer="svg28" />
  <path
     d="m 57.142,40.01 -3.63,-0.519 a 12.885,12.885 0 0 0 -1.186,-2.854 l 2.2,-2.937 a 1,1 0 0 0 -0.092,-1.306 l -2.829,-2.829 a 1,1 0 0 0 -1.306,-0.092 l -2.937,2.2 a 12.885,12.885 0 0 0 -2.854,-1.186 l -0.519,-3.63 A 1,1 0 0 0 43,26 H 42 V 5 A 5.006,5.006 0 0 0 37,0 H 5 A 5.006,5.006 0 0 0 0,5 v 44 a 5.006,5.006 0 0 0 5,5 h 22.959 l 2.435,2.435 a 1,1 0 0 0 1.306,0.092 l 2.937,-2.2 a 12.885,12.885 0 0 0 2.854,1.186 l 0.519,3.63 A 1,1 0 0 0 39,60 h 4 a 1,1 0 0 0 0.99,-0.858 l 0.519,-3.63 a 12.885,12.885 0 0 0 2.854,-1.186 l 2.937,2.2 a 1,1 0 0 0 1.306,-0.092 l 2.829,-2.829 a 1,1 0 0 0 0.092,-1.306 l -2.2,-2.937 a 12.885,12.885 0 0 0 1.186,-2.854 l 3.63,-0.519 A 1,1 0 0 0 58,45 V 41 A 1,1 0 0 0 57.142,40.01 Z M 34,2 V 8.586 L 32.707,7.293 a 1,1 0 0 0 -1.414,0 L 30,8.586 V 2 Z M 2,49 V 5 A 3,3 0 0 1 5,2 h 23 v 9 a 1,1 0 0 0 1.707,0.707 L 32,9.414 34.293,11.707 A 1,1 0 0 0 35,12 0.987,0.987 0 0 0 35.383,11.924 1,1 0 0 0 36,11 V 2 h 1 a 3,3 0 0 1 3,3 v 21 h -1 a 1,1 0 0 0 -0.99,0.858 l -0.519,3.63 a 12.885,12.885 0 0 0 -2.854,1.186 l -2.937,-2.2 a 1,1 0 0 0 -1.306,0.092 l -2.829,2.829 a 1,1 0 0 0 -0.092,1.306 l 2.2,2.937 a 12.885,12.885 0 0 0 -1.186,2.854 l -3.63,0.519 A 1,1 0 0 0 24,41 v 4 a 1,1 0 0 0 0.858,0.99 l 3.63,0.519 a 12.885,12.885 0 0 0 1.186,2.854 L 27.7,52 H 5 A 3,3 0 0 1 2,49 Z m 54,-4.867 -3.436,0.49 a 1,1 0 0 0 -0.835,0.773 10.876,10.876 0 0 1 -1.45,3.494 1,1 0 0 0 0.044,1.135 l 2.084,2.781 -1.6,1.6 -2.781,-2.084 a 1,1 0 0 0 -1.135,-0.044 10.876,10.876 0 0 1 -3.494,1.45 1,1 0 0 0 -0.773,0.835 L 42.133,58 h -2.266 l -0.49,-3.436 a 1,1 0 0 0 -0.773,-0.835 10.876,10.876 0 0 1 -3.494,-1.45 1,1 0 0 0 -1.135,0.044 l -2.781,2.084 -1.6,-1.6 2.084,-2.781 a 1,1 0 0 0 0.044,-1.135 10.876,10.876 0 0 1 -1.45,-3.494 1,1 0 0 0 -0.835,-0.773 L 26,44.133 v -2.266 l 3.436,-0.49 a 1,1 0 0 0 0.835,-0.773 10.876,10.876 0 0 1 1.45,-3.494 1,1 0 0 0 -0.044,-1.135 l -2.084,-2.781 1.6,-1.6 2.781,2.084 a 1,1 0 0 0 1.135,0.044 10.876,10.876 0 0 1 3.494,-1.45 1,1 0 0 0 0.773,-0.835 L 39.867,28 h 2.266 l 0.49,3.436 a 1,1 0 0 0 0.773,0.835 10.876,10.876 0 0 1 3.494,1.45 1,1 0 0 0 1.135,-0.044 l 2.781,-2.084 1.6,1.6 -2.084,2.781 a 1,1 0 0 0 -0.044,1.135 10.876,10.876 0 0 1 1.45,3.494 1,1 0 0 0 0.835,0.773 l 3.436,0.49 z"
     id="path2" />
  <path
     d="m 41,35 a 8,8 0 1 0 8,8 8.009,8.009 0 0 0 -8,-8 z m 0,14 a 6,6 0 1 1 6,-6 6.006,6.006 0 0 1 -6,6 z"
     id="path4" />
  <rect
     x="6"
     y="6"
     width="4"
     height="2"
     id="rect6" />
  <rect
     x="12"
     y="6"
     width="10"
     height="2"
     id="rect8" />
  <rect
     x="6"
     y="10"
     width="16"
     height="2"
     id="rect10" />
  <rect
     x="6"
     y="18"
     width="28"
     height="2"
     id="rect12" />
  <rect
     x="6"
     y="24"
     width="22"
     height="2"
     id="rect14" />
  <rect
     x="30"
     y="24"
     width="4"
     height="2"
     id="rect16" />
  <rect
     x="6"
     y="30"
     width="20"
     height="2"
     id="rect18" />
  <rect
     x="6"
     y="38"
     width="8"
     height="2"
     id="rect20" />
  <rect
     x="6"
     y="42"
     width="8"
     height="2"
     id="rect22" />
</svg>
