<?xml version="1.0" encoding="UTF-8"?>
<svg width="445.99" height="492.26" data-name="Layer 1" version="1.1" viewBox="0 0 445.99 492.26" xmlns="http://www.w3.org/2000/svg" xmlns:cc="http://creativecommons.org/ns#" xmlns:dc="http://purl.org/dc/elements/1.1/" xmlns:rdf="http://www.w3.org/1999/02/22-rdf-syntax-ns#">
 <metadata>
  <rdf:RDF>
   <cc:Work rdf:about="">
    <dc:format>image/svg+xml</dc:format>
    <dc:type rdf:resource="http://purl.org/dc/dcmitype/StillImage"/>
    <dc:title>Countries</dc:title>
   </cc:Work>
  </rdf:RDF>
 </metadata>
 <title>Countries</title>
 <path d="m408.08 124.55a22.124 22.124 0 1 0 22.12 22.124 22.147 22.147 0 0 0-22.12-22.124zm0 32.248a10.124 10.124 0 1 1 10.12-10.124 10.133 10.133 0 0 1-10.12 10.125z"/>
 <path d="m150.98 70.362a26.062 26.062 0 1 0-26.051-26.062 26.085 26.085 0 0 0 26.051 26.062zm0-40.124a14.062 14.062 0 1 1-14.051 14.062 14.072 14.072 0 0 1 14.051-14.062z"/>
 <path d="m251.7 221.81a26.051 26.051 0 1 0-26.051 26.062 26.086 26.086 0 0 0 26.051-26.062zm-26.051 14.062a14.062 14.062 0 1 1 14.051-14.062 14.072 14.072 0 0 1-14.053 14.062z"/>
 <path d="m53.644 151.78a26.062 26.062 0 1 0-26.051-26.062 26.086 26.086 0 0 0 26.051 26.062zm0-40.124a14.062 14.062 0 1 1-14.051 14.062 14.072 14.072 0 0 1 14.051-14.062z"/>
 <path d="m445.92 145.2c-1.287-19.8-17.464-35.307-36.828-35.307a36.277 36.277 0 0 0-24.22 9.338c-19.662-19.207-44.209-35.751-71.382-48.049-30.812-13.945-62.846-21.316-92.637-21.316a233.11 233.11 0 0 0-24.59 1.526 43.276 43.276 0 0 0 0.324-8.832c-1.552-23.866-21.032-42.56-44.348-42.56s-42.8 18.694-44.348 42.55a46.717 46.717 0 0 0 9.3 30.429l1.239 1.657a301.38 301.38 0 0 0-31.67 20.644 43.843 43.843 0 0 0-31.86-13.864c-23.317 0-42.8 18.7-44.347 42.55a46.726 46.726 0 0 0 9.3 30.43l7.153 9.566c-16.95 32.598-27.006 72.292-27.006 106.97a220.85 220.85 0 1 0 441.71 0c0-24.614-6.269-61.527-14.457-85.846l10.957-14.65a37.951 37.951 0 0 0 7.713-25.237zm-326.06-101.86c1-15.4 13.385-31.338 32.374-31.338s31.371 15.934 32.374 31.354a33.788 33.788 0 0 1-6.937 22.44l-25.437 34.025-25.394-33.966a34.673 34.673 0 0 1-6.98-22.515zm-97.335 81.416c1-15.4 13.384-31.338 32.373-31.338s31.372 15.934 32.374 31.355a33.776 33.776 0 0 1-6.937 22.439l-25.44 34.025-25.391-33.966a34.672 34.672 0 0 1-6.979-22.515zm12.522 49.97 15.048 20.124a6 6 0 0 0 9.611 0l30.236-40.448a45.438 45.438 0 0 0 3.853-49.4 288.23 288.23 0 0 1 31.888-20.66l21.747 29.088a6 6 0 0 0 9.611 0l30.238-40.447a48.053 48.053 0 0 0 5.359-9.065c2.493-0.319 4.984-0.617 7.44-0.866l25.2 36.356a24 24 0 0 1-0.716 28.4l-7.118 9.243a16.329 16.329 0 0 1-14.951 6.216l-8.074-1.032a29.255 29.255 0 0 0-28.959 14.218 16.492 16.492 0 0 1-16.31 8.017l-18.642-2.37a30.241 30.241 0 0 0-29 13.121 26.905 26.905 0 0 0-0.454 29.47l12.315 19.465a25.084 25.084 0 0 0 21.206 11.616 24.777 24.777 0 0 0 11.736-2.945l12.68-6.8c6.212-3.331 16.3-3.364 23.571-0.368a47.812 47.812 0 0 0 9.289 24.829l30.244 40.46a6 6 0 0 0 9.611 0l15.339-20.518 1.95 2.672c0.826 1.152 1.711 2.286 2.632 3.37l15.4 18.138a7.833 7.833 0 0 1-1.195 11.278l-23.337 17.945a37.534 37.534 0 0 0-13.069 18.817l-7.779 25.252a15.73 15.73 0 0 1-2.944 5.444l-7.569 9.112a44.325 44.325 0 0 0-10.026 23.844 11.94 11.94 0 0 1-7.253 9.787 5.95 5.95 0 0 1-8.168-4.518l-7.13-42.819a33.244 33.244 0 0 0-6.328-14.64l-26.121-34.281a30.245 30.245 0 0 1-5.112-10.3l-8.621-31.129a32.833 32.833 0 0 0-22.891-22.815l-1.874-0.511a24.078 24.078 0 0 1-10.136-5.685l-16.079-15.154a36.332 36.332 0 0 1-6.523-8.227 35.8 35.8 0 0 0-37.894-17.162 5.926 5.926 0 0 0-0.693 0.18l-16.111 5.241a234.68 234.68 0 0 1 14.873-39.543zm159.48 46.128c1-15.4 13.384-31.338 32.373-31.338s31.372 15.934 32.374 31.355a33.776 33.776 0 0 1-6.937 22.439l-25.437 34.025-25.394-33.966a34.672 34.672 0 0 1-6.979-22.515zm235.17 50.081c0 115.28-93.692 209.07-208.85 209.07s-208.85-93.787-208.85-209.07a206.78 206.78 0 0 1 4.808-42.951l22.833-7.427a23.8 23.8 0 0 1 24.859 11.475 48.361 48.361 0 0 0 8.674 10.94l16.08 15.149a36.147 36.147 0 0 0 15.206 8.527l1.874 0.51a20.781 20.781 0 0 1 14.481 14.444l8.621 31.134a42.191 42.191 0 0 0 7.132 14.373l26.121 34.282a21.2 21.2 0 0 1 4.036 9.338l7.13 42.819a17.92 17.92 0 0 0 24.645 13.608 23.931 23.931 0 0 0 14.545-19.618 32.374 32.374 0 0 1 7.321-17.413l7.569-9.112a27.657 27.657 0 0 0 5.182-9.58l7.776-25.252a25.6 25.6 0 0 1 8.912-12.833l23.347-17.946a19.833 19.833 0 0 0 3.029-28.56l-15.4-18.138c-0.708-0.834-1.389-1.706-2.052-2.631l-4.157-5.7 7.381-9.872a45.764 45.764 0 0 0 9.3-30.425c-1.551-23.866-21.031-42.56-44.348-42.56-21.07 0-39 15.267-43.409 35.811-9.967-2.938-21.9-2.3-30.17 2.132l-12.68 6.8a13.049 13.049 0 0 1-17.13-4.512l-12.316-19.466a14.908 14.908 0 0 1 0.251-16.329 18.3 18.3 0 0 1 17.549-7.941l18.642 2.369a28.467 28.467 0 0 0 28.169-13.841 17.259 17.259 0 0 1 17.092-8.4l8.073 1.032a28.375 28.375 0 0 0 25.981-10.8l7.118-9.243a35.957 35.957 0 0 0 1.071-42.558l-21.176-30.542c2.427-0.1 4.737-0.16 6.883-0.16 28.1 0 58.42 7 87.689 20.249a251.38 251.38 0 0 1 26.687 14.1l-16.118 27.627a22.473 22.473 0 0 0 2.6 25.911 28.583 28.583 0 0 0 18.048 9.572l2.923 0.36a14.725 14.725 0 0 1 12.282 10.347 14.183 14.183 0 0 1-4.165 14.7l-28.944 25.592a27.671 27.671 0 0 0-9.334 20.719v6.791a23.98 23.98 0 0 0 11.011 20.225 13.243 13.243 0 0 1 6.02 9.858l0.677 6.78a22.147 22.147 0 0 0 22.1 20.017h16.941a36.132 36.132 0 0 0 33.08-21.623l1.018-2.321a13.35 13.35 0 0 1 11.688-8.029l3.975-0.18q0.97-0.043 1.936-0.141l8.451-0.851c0.188 3.287 0.289 6.431 0.289 9.364zm-1.285-21.333-8.657 0.871c-0.422 0.043-0.846 0.073-1.274 0.093l-3.981 0.181a25.278 25.278 0 0 0-22.132 15.2l-1.018 2.321a24.129 24.129 0 0 1-22.09 14.443h-16.943a10.185 10.185 0 0 1-10.16-9.209l-0.678-6.781a25.175 25.175 0 0 0-11.45-18.745 12.029 12.029 0 0 1-5.521-10.145v-6.791a15.663 15.663 0 0 1 5.283-11.729l28.944-25.592a26.216 26.216 0 0 0 7.7-27.163 26.735 26.735 0 0 0-22.3-18.781l-2.923-0.36a16.6 16.6 0 0 1-10.482-5.559 10.451 10.451 0 0 1-1.237-12.018l15.839-27.149a224.38 224.38 0 0 1 31.933 25.913 38.185 38.185 0 0 0-5.01 16.6 38.743 38.743 0 0 0 7.708 25.241l24.314 32.512a6 6 0 0 0 9.61 0l4.471-5.979a329.24 329.24 0 0 1 10.054 52.626zm0.179-86.357-19.509 26.087-19.465-26.03a26.684 26.684 0 0 1-5.388-17.324c0.77-11.84 10.277-24.086 24.853-24.086s24.084 12.246 24.854 24.1a25.962 25.962 0 0 1-5.346 17.254z"/>
</svg>
