<?xml version="1.0" encoding="UTF-8" standalone="no"?>
<svg
   xmlns:dc="http://purl.org/dc/elements/1.1/"
   xmlns:cc="http://creativecommons.org/ns#"
   xmlns:rdf="http://www.w3.org/1999/02/22-rdf-syntax-ns#"
   xmlns:svg="http://www.w3.org/2000/svg"
   xmlns="http://www.w3.org/2000/svg"
   xmlns:sodipodi="http://sodipodi.sourceforge.net/DTD/sodipodi-0.dtd"
   xmlns:inkscape="http://www.inkscape.org/namespaces/inkscape"
   version="1.1"
   x="0px"
   y="0px"
   viewBox="0 0 79.311752 64.400002"
   enable-background="new 0 0 100 100"
   xml:space="preserve"
   id="svg384"
   sodipodi:docname="icon-organizations.svg"
   width="79.311752"
   height="64.400002"
   inkscape:version="1.0.2 (e86c870879, 2021-01-15, custom)"><metadata
     id="metadata390"><rdf:RDF><cc:Work
         rdf:about=""><dc:format>image/svg+xml</dc:format><dc:type
           rdf:resource="http://purl.org/dc/dcmitype/StillImage" /><dc:title></dc:title></cc:Work></rdf:RDF></metadata><defs
     id="defs388" /><sodipodi:namedview
     pagecolor="#ffffff"
     bordercolor="#666666"
     borderopacity="1"
     objecttolerance="10"
     gridtolerance="10"
     guidetolerance="10"
     inkscape:pageopacity="0"
     inkscape:pageshadow="2"
     inkscape:window-width="1920"
     inkscape:window-height="1057"
     id="namedview386"
     showgrid="false"
     fit-margin-top="0"
     fit-margin-left="0"
     fit-margin-right="0"
     fit-margin-bottom="0"
     inkscape:zoom="7.12"
     inkscape:cx="39.655877"
     inkscape:cy="35.872893"
     inkscape:window-x="-8"
     inkscape:window-y="-8"
     inkscape:window-maximized="1"
     inkscape:current-layer="svg384" /><g
     id="g378"
     transform="translate(-10.344123,-17.8)"><path
       d="m 52.536,40.855 c -0.897,0 -1.763,0.247 -2.536,0.696 -0.773,-0.449 -1.639,-0.696 -2.536,-0.696 -2.799,0 -5.073,2.274 -5.073,5.073 0,4.269 6.094,9.527 6.79,10.115 L 50,56.739 50.82,56.043 c 0.696,-0.588 6.79,-5.846 6.79,-10.115 -10e-4,-2.799 -2.275,-5.073 -5.074,-5.073 z M 50,53.383 c -2.227,-2.072 -5.073,-5.382 -5.073,-7.455 0,-1.392 1.145,-2.536 2.536,-2.536 0.789,0 1.346,0.356 1.686,0.665 L 50,44.815 50.851,44.057 c 0.34,-0.294 0.897,-0.665 1.686,-0.665 1.392,0 2.536,1.129 2.536,2.536 0,2.073 -2.846,5.383 -5.073,7.455 z"
       id="path366" /><path
       d="m 32.923,48.761 h -7.156 c -0.773,0 -1.4,0.627 -1.4,1.4 v 7.156 c 0,0.773 0.627,1.4 1.4,1.4 h 7.156 c 0.773,0 1.4,-0.627 1.4,-1.4 v -7.156 c 0,-0.773 -0.627,-1.4 -1.4,-1.4 z m -1.401,7.156 h -4.355 v -4.355 h 4.355 z"
       id="path368" /><path
       d="m 32.923,65.339 h -7.156 c -0.773,0 -1.4,0.627 -1.4,1.4 v 7.155 c 0,0.773 0.627,1.4 1.4,1.4 h 7.156 c 0.773,0 1.4,-0.627 1.4,-1.4 V 66.74 c 0,-0.774 -0.627,-1.401 -1.4,-1.401 z m -1.401,7.156 H 27.167 V 68.14 h 4.355 z"
       id="path370" /><path
       d="m 67.241,58.718 h 7.156 c 0.773,0 1.4,-0.627 1.4,-1.4 v -7.156 c 0,-0.773 -0.627,-1.4 -1.4,-1.4 h -7.156 c -0.773,0 -1.4,0.627 -1.4,1.4 v 7.156 c 0,0.773 0.627,1.4 1.4,1.4 z m 1.401,-7.156 h 4.355 v 4.355 h -4.355 z"
       id="path372" /><path
       d="m 67.241,75.295 h 7.156 c 0.773,0 1.4,-0.627 1.4,-1.4 V 66.74 c 0,-0.773 -0.627,-1.4 -1.4,-1.4 h -7.156 c -0.773,0 -1.4,0.627 -1.4,1.4 v 7.155 c 0,0.773 0.627,1.4 1.4,1.4 z m 1.401,-7.155 h 4.355 v 4.354 h -4.355 z"
       id="path374" /><path
       d="M 89.467,42.868 75.328,18.498 C 75.078,18.065 74.616,17.8 74.117,17.8 H 25.883 c -0.499,0 -0.961,0.266 -1.211,0.698 l -14.139,24.37 c -0.251,0.433 -0.252,0.967 -0.002,1.4 0.25,0.435 0.712,0.702 1.213,0.702 h 3.923 V 82.2 H 84.333 V 44.97 h 3.923 c 0.501,0 0.963,-0.268 1.213,-0.702 0.25,-0.434 0.249,-0.968 -0.002,-1.4 z M 45.828,66.831 c 0,-2.3 1.871,-4.171 4.172,-4.171 2.3,0 4.171,1.871 4.171,4.171 L 54.167,79.2 h -8.33 z M 56.972,79.2 V 66.831 c 0,-3.844 -3.128,-6.972 -6.972,-6.972 -3.845,0 -6.973,3.128 -6.973,6.972 V 79.2 H 18.467 V 44.97 h 14.52 c 0.319,0 0.629,-0.109 0.877,-0.31 L 50,31.688 66.135,44.661 c 0.248,0.2 0.558,0.31 0.877,0.31 H 81.533 V 79.2 Z M 30.419,42.169 49.996,25.743 69.417,42.169 H 67.505 L 50.877,28.8 c -0.512,-0.412 -1.242,-0.412 -1.754,0 L 32.494,42.169 Z m 43.335,0 -22.85,-19.325 C 50.384,22.404 49.622,22.403 49.1,22.841 L 26.064,42.169 H 14.175 L 26.69,20.601 h 46.621 l 12.515,21.568 z"
       id="path376" /></g></svg>
